# xmcd CD database file
# Copyright (C) 1993-1998 Ti Kan
#
# Track frame offsets:
#  150
#  12797
#  28672
#  43266
#  54346
#  66457
#  79837
#  93343
#  103654
#  119686
#  141030
#
# Disc length: 2033 seconds
#
# Revision: 1
# Processed by: cddbd v1.4b41PL1 Copyright (c) Steve Scherf et al.
# Submitted via: CDWizzard Release:4.35
#
DISCID=9507ef0b
DTITLE=Carpe Diem - Into the Promised Land
DYEAR=1900
DGENRE=
TTITLE0=Melt Away
TTITLE1=O.D.E.
TTITLE2=Reciprocity
TTITLE3=Burn Down the Factory
TTITLE4=Little Bird
TTITLE5=Work for Food Blues
TTITLE6=SPIT
TTITLE7=Dirty Girl
TTITLE8=Cry Baby
TTITLE9=Dear Mother
TTITLE10=Twenty Dollar Bill
EXTD=
EXTT0=
EXTT1=
EXTT2=
EXTT3=
EXTT4=
EXTT5=
EXTT6=
EXTT7=
EXTT8=
EXTT9=
EXTT10=
PLAYORDER=
